<?xml version="1.0" standalone="no"?>
<!DOCTYPE svg PUBLIC "-//W3C//DTD SVG 20010904//EN"
 "http://www.w3.org/TR/2001/REC-SVG-20010904/DTD/svg10.dtd">
<svg version="1.0" xmlns="http://www.w3.org/2000/svg"
 width="200.000000pt" height="232.000000pt" viewBox="0 0 200.000000 232.000000"
 preserveAspectRatio="xMidYMid meet">
<metadata>
Created by potrace 1.16, written by Peter Selinger 2001-2019
</metadata>
<g transform="translate(0.000000,232.000000) scale(0.100000,-0.100000)"
fill="#0050B2" stroke="none">
<path d="M1759 2232 c11 -22 11 -33 -1 -55 -21 -40 -90 -37 -104 5 -22 70 71
114 105 50z m100 -116 c44 -46 31 -111 -27 -140 -35 -17 -86 -4 -107 28 -15
22 -16 22 -237 22 l-223 -1 -99 -102 -99 -103 -427 0 -427 0 2 -34 c1 -19 12
-47 24 -62 l22 -28 442 0 c284 -1 445 3 449 9 5 7 8 7 8 0 0 -6 35 -9 87 -8
l87 1 57 -59 57 -59 90 0 c65 0 93 4 101 14 15 18 56 14 80 -8 20 -18 20 -58
-1 -83 -14 -18 -63 -16 -78 2 -10 12 -36 15 -114 15 l-103 0 -57 60 -58 60
-494 0 c-272 0 -494 -3 -494 -8 0 -4 11 -29 25 -55 20 -36 25 -60 24 -102 -2
-46 2 -60 21 -80 l23 -25 608 -2 c334 -2 605 0 603 3 -6 10 41 49 65 54 85 16
142 -95 77 -152 -39 -33 -87 -31 -123 7 l-28 30 -572 0 c-315 0 -573 -4 -573
-8 0 -5 13 -27 29 -49 16 -22 37 -55 46 -74 10 -19 27 -44 38 -56 l20 -23 453
0 c400 0 453 2 465 16 16 19 66 12 84 -13 16 -22 9 -64 -12 -80 -23 -17 -58
-16 -73 2 -10 13 -51 15 -251 15 l-238 0 77 -75 77 -74 109 -1 c106 0 109 1
143 30 37 33 61 37 102 16 54 -29 62 -102 15 -143 -39 -35 -116 -24 -129 19
-6 16 -19 18 -134 18 l-129 0 -108 105 -109 105 -142 0 -142 0 39 -53 c22 -29
58 -63 79 -75 42 -24 74 -78 69 -115 -4 -32 -44 -34 -77 -4 -37 34 -110 52
-153 38 -36 -12 -34 -4 -39 -136 -1 -27 3 -62 9 -77 l12 -28 269 0 c251 0 271
1 283 18 21 30 57 44 93 38 42 -8 66 -36 70 -82 3 -30 -2 -42 -25 -65 -39 -39
-82 -39 -122 1 l-30 30 -235 0 -236 0 27 -27 c15 -14 34 -41 42 -59 10 -21 21
-31 30 -27 30 11 61 -7 85 -52 23 -42 26 -45 66 -45 33 0 48 6 71 30 59 58
147 23 147 -59 0 -50 -26 -79 -78 -88 -31 -5 -40 -1 -67 26 -25 25 -40 31 -73
31 -23 0 -51 -7 -61 -15 -28 -21 -62 -18 -80 6 -18 27 -96 34 -97 9 0 -8 -1
-39 -2 -68 l-2 -52 191 0 c158 0 194 3 204 15 17 21 56 19 80 -5 23 -23 24
-29 11 -63 -12 -32 -55 -43 -87 -22 -19 12 -62 15 -243 15 -238 0 -235 -1
-224 56 5 28 11 97 12 142 2 42 31 58 100 55 35 -1 70 -8 77 -14 16 -13 18 -5
4 21 -7 12 -20 18 -40 18 -29 -1 -70 25 -70 45 0 16 -50 77 -63 77 -50 0 -118
136 -110 222 2 24 5 63 7 88 3 25 5 46 5 48 1 1 0 3 -1 5 -6 6 27 35 35 30 4
-2 7 0 7 4 0 10 25 14 86 17 l41 1 -45 59 c-25 32 -65 79 -89 104 -24 25 -55
66 -69 91 -48 88 -93 153 -127 185 -47 43 -59 69 -58 132 0 40 -7 68 -30 114
-17 34 -37 64 -45 67 -24 9 -83 93 -77 109 10 27 -14 43 -47 31 -22 -8 -32 -8
-44 2 -20 17 -21 40 -1 47 8 4 15 12 15 20 0 8 3 15 8 16 4 0 220 2 480 3
l474 2 101 105 102 105 233 -1 c218 -1 234 0 244 17 12 24 63 45 93 39 13 -2
33 -14 44 -26z m-103 -182 c13 -20 14 -27 2 -51 -20 -43 -90 -44 -103 -2 -23
72 61 116 101 53z m163 -29 c55 -54 14 -145 -65 -145 -90 0 -117 122 -37 164
35 18 72 11 102 -19z m-73 -181 c23 -34 0 -78 -42 -82 -41 -4 -66 21 -62 62 5
55 73 68 104 20z m-605 -1485 c15 -15 19 -28 14 -47 -12 -52 -60 -67 -95 -32
-24 24 -25 48 -4 78 19 28 58 28 85 1z"/>
<path d="M1783 2083 c-18 -6 -16 -50 2 -57 14 -5 45 18 45 34 0 13 -32 28 -47
23z"/>
<path d="M1692 1361 c-20 -12 -10 -46 14 -49 25 -4 40 24 23 44 -13 16 -19 17
-37 5z"/>
<path d="M1474 875 c-9 -23 3 -45 25 -45 24 0 39 39 20 51 -21 13 -39 11 -45
-6z"/>
<path d="M1204 575 c-9 -23 3 -45 25 -45 24 0 39 39 20 51 -21 13 -39 11 -45
-6z"/>
<path d="M1024 305 c-8 -20 2 -45 18 -45 26 0 40 17 33 39 -7 24 -43 29 -51 6z"/>
<path d="M1843 1873 c-21 -8 -15 -50 7 -56 18 -5 40 16 40 37 0 10 -35 23 -47
19z"/>
</g>
</svg>
